General


Format                           : MPEG-4
Format profile                   : Base Media
Codec ID                         : isom
File size                        : 71.2 MiB
Duration                         : 2mn 56s
Overall bit rate                 : 3 377 Kbps
Encoded date                     : UTC 2012-03-22 04:24:24
Tagged date                      : UTC 2012-03-22 04:24:24

Video
ID                               : 1
Format                           : AVC
Format/Info                      : Advanced Video Codec
Format profile                   : High@L3.0
Format settings, CABAC           : Yes
Format settings, ReFrames        : 2 frames
Codec ID                         : avc1
Codec ID/Info                    : Advanced Video Coding
Duration                         : 2mn 56s
Bit rate mode                    : Variable
Bit rate                         : 3 359 Kbps
Maximum bit rate                 : 10.6 Mbps
Width                            : 720 pixels
Height                           : 480 pixels
Display aspect ratio             : 16:9
Original display aspect ratio    : 16:9
Frame rate mode                  : Constant
Frame rate                       : 25.000 fps
Standard                         : NTSC
Color space                      : YUV
Chroma subsampling               : 4:2:0
Bit depth                        : 8 bits
Scan type                        : Progressive
Bits/(Pixel*Frame)               : 0.389
Stream size                      : 69.6 MiB (98%)


Audio
ID                               : 2
Format                           : AAC
Format/Info                      : Advanced Audio Codec
Format profile                   : LC
Codec ID                         : 40
Duration                         : 2mn 56s
Bit rate mode                    : Variable
Bit rate                         : 69.6 Kbps
Maximum bit rate                 : 85.4 Kbps
Channel(s)                       : 2 channels
Channel positions                : Front: L R
Sampling rate                    : 44.1 KHz
Compression mode                 : Lossy
Stream size                      : 1.47 MiB (2%)


